{"title":"Paprika 2006 [720p,BluRay,x264] THORA","uid":10750321,"size":2338611646,"categoryP":"video","categoryS":"hd___movies","magnet":"?xt=urn:btih:f962491450fdd1136097235a126a13ce01a10e3e&amp;dn=Paprika+2006+%5B720p%2CBluRay%2Cx264%5D+THORA&amp;tr=udp%3A%2F%2Ftracker.openbittorrent.com%3A80&amp;tr=udp%3A%2F%2Fopen.demonii.com%3A1337&amp;tr=udp%3A%2F%2Ftracker.coppersurfer.tk%3A6969&amp;tr=udp%3A%2F%2Fexodus.desync.com%3A6969","seeders":1,"leechers":1,"uploader":"rpessoa","files":2,"time":1407866214,"description":"When a machine that allows therapists to enter their patient's dreams is stolen, all hell breaks loose. Only a young female therapist can stop it: Paprika.\n &lt;a href=&quot;\nhttp://www.imdb.com/title/tt0851578/&quot; rel=&quot;nofollow&quot; target=&quot;_NEW&quot;&gt;\nhttp://www.imdb.com/title/tt0851578/&lt;/a&gt;\n\nGeneral\nUnique ID : 204014048759275493447488508337081154390 (0x997BAD32E9A8C224BA9EE08D5A45FB56)\nComplete name : Paprika 2006 [720p,BluRay,x264] THORA/Paprika 2006.mkv\nFormat : Matroska\nFormat version : Version 1\nFile size : 2.18 GiB\nDuration : 1h 30mn\nOverall bit rate : 3 444 Kbps\nMovie name : Paprika (2006)\nEncoded date : UTC 2007-06-08 21:15:08\nWriting application : mkvmerge v2.0.2 ('You're My Flame') built on Feb 21 2007 23:40:55\nWriting library : libebml v0.7.7 + libmatroska v0.8.1\nAttachment : Yes / Yes / Yes / Yes\n\nVideo\nID : 1\nFormat : AVC\nFormat/Info : Advanced Video Codec\nFormat profile : &lt;a class=&quot;__cf_email__&quot; href=&quot;/cdn-cgi/l/email-protection&quot; data-cfemail=&quot;5c14353b341c1069726d&quot;&gt;[email&amp;#160;protected]&lt;/a&gt;&lt;script cf-hash='f9e31' type=&quot;text/javascript&quot;&gt;\n/* &lt;![CDATA[ */!function(){try{var t=&quot;currentScript&quot;in document?document.currentScript:function(){for(var t=document.getElementsByTagName(&quot;script&quot;),e=t.length;e--;)if(t[e].getAttribute(&quot;cf-hash&quot;))return t[e]}();if(t&amp;&amp;t.previousSibling){var e,r,n,i,c=t.previousSibling,a=c.getAttribute(&quot;data-cfemail&quot;);if(a){for(e=&quot;&quot;,r=parseInt(a.substr(0,2),16),n=2;a.length-n;n+=2)i=parseInt(a.substr(n,2),16)^r,e+=String.fromCharCode(i);e=document.createTextNode(e),c.parentNode.replaceChild(e,c)}}}catch(u){}}();/* ]]&gt; */&lt;/script&gt;\nFormat settings, CABAC : Yes\nFormat settings, ReFrames : 13 frames\nCodec ID : V_MPEG4/ISO/AVC\nDuration : 1h 30mn\nBit rate : 2 800 Kbps\nWidth : 1 280 pixels\nHeight : 688 pixels\nDisplay aspect ratio : 1.860\nFrame rate : 23.976 fps\nColor space : YUV\nChroma subsampling : 4:2:0\nBit depth : 8 bits\nScan type : Progressive\nBits/(Pixel*Frame) : 0.133\nStream size : 1.73 GiB (79%)\nWriting library : x264 core 54\nEncoding settings : cabac=1 / ref=10 / deblock=1:-1:-1 / analyse=0x3:0x133 / me=hex / subme=7 / brdo=1 / mixed_ref=1 / me_range=16 / chroma_me=1 / trellis=1 / 8x8dct=1 / cqm=2 / deadzone=21,11 / chroma_qp_offset=0 / threads=3 / nr=0 / decimate=1 / mbaff=0 / bframes=10 / b_pyramid=1 / b_adapt=1 / b_bias=0 / direct=1 / wpredb=1 / bime=1 / keyint=250 / keyint_min=25 / scenecut=40(pre) / rc=2pass / bitrate=2800 / ratetol=1.0 / rceq='blurCplx^(1-qComp)' / qcomp=0.60 / qpmin=10 / qpmax=51 / qpstep=4 / cplxblur=20.0 / qblur=0.5 / ip_ratio=1.40 / pb_ratio=1.30 / aq=1:0.4:18.0\nLanguage : Japanese\nDefault : Yes\nForced : No\n\nAudio\nID : 2\nFormat : AC-3\nFormat/Info : Audio Coding 3\nMode extension : CM (complete main)\nCodec ID : A_AC3\nDuration : 1h 30mn\nBit rate mode : Constant\nBit rate : 640 Kbps\nChannel(s) : 6 channels\nChannel positions : Front: L C R, Side: L R, LFE\nSampling rate : 48.0 KHz\nBit depth : 16 bits\nCompression mode : Lossy\nStream size : 414 MiB (19%)\nLanguage : Japanese\nDefault : Yes\nForced : No\n\nText\nID : 3\nFormat : ASS\nCodec ID : S_TEXT/ASS\nCodec ID/Info : Advanced Sub Station Alpha\nCompression mode : Lossless\nLanguage : English\nDefault : Yes\nForced : No\n","torrent":{"xt":"urn:btih:f962491450fdd1136097235a126a13ce01a10e3e","amp;dn":"Paprika+2006+%5B720p%2CBluRay%2Cx264%5D+THORA","amp;tr":["udp%3A%2F%2Ftracker.openbittorrent.com%3A80","udp%3A%2F%2Fopen.demonii.com%3A1337","udp%3A%2F%2Ftracker.coppersurfer.tk%3A6969","udp%3A%2F%2Fexodus.desync.com%3A6969"],"infoHash":"f962491450fdd1136097235a126a13ce01a10e3e","infoHashBuffer":{"type":"Buffer","data":[249,98,73,20,80,253,209,19,96,151,35,90,18,106,19,206,1,161,14,62]},"announce":[],"urlList":[]}}